<?xml version="1.0" encoding="UTF-8"?>
<svg xmlns="http://www.w3.org/2000/svg" id="Layer_1" data-name="Layer 1" viewBox="0 0 24 24" width="512" height="512"><path d="M9.5,12h-1v-.619c0-1.005,.657-2.184,1.464-2.628,.762-.42,1.156-1.252,1.003-2.119-.14-.802-.798-1.46-1.601-1.602-.603-.104-1.191,.048-1.652,.436-.454,.381-.714,.939-.714,1.532h-1c0-.889,.391-1.727,1.071-2.298s1.58-.812,2.468-.654c1.209,.212,2.201,1.204,2.413,2.413,.224,1.273-.381,2.547-1.506,3.168-.496,.273-.947,1.107-.947,1.752v.619Zm.5,2h0c0-.552-.448-1-1-1h0c-.552,0-1,.448-1,1h0c0,.552,.448,1,1,1h0c.552,0,1-.448,1-1Zm9.996-4.92c-.003,.382-.025,.759-.066,1.131,1.852,1.261,3.07,3.385,3.07,5.789v7h-7c-2.404,0-4.528-1.219-5.789-3.07-.372,.041-.749,.064-1.131,.066,1.385,2.389,3.965,4.004,6.92,4.004h8v-8c0-2.955-1.615-5.535-4.004-6.92Zm-1.996-.08C18,4.037,13.963,0,9,0S0,4.037,0,9v9H9c4.963,0,9-4.037,9-9ZM1,9C1,4.589,4.589,1,9,1s8,3.589,8,8-3.589,8-8,8H1V9Z"/></svg>
